<svg version="1.1" id="Layer_1" xmlns="http://www.w3.org/2000/svg" xmlns:xlink="http://www.w3.org/1999/xlink" x="0px" y="0px"
	 width="100%" viewBox="0 0 496 496" enable-background="new 0 0 496 496" xml:space="preserve">
<path fill="#000000" opacity="1.000000" stroke="none" 
	d="
M434.928894,373.460175 
	C435.980408,373.814148 437.242950,373.703583 436.974121,374.854431 
	C436.343781,377.552490 430.489716,380.440399 427.724915,379.502686 
	C423.340881,378.015778 418.977264,376.468628 414.030029,374.746857 
	C416.443878,379.558899 419.223633,383.209656 424.126740,385.383270 
	C420.989166,388.841919 417.483673,391.421967 413.597961,393.924591 
	C413.097382,388.085999 399.868195,370.701233 393.202148,367.193787 
	C398.994659,362.564850 403.444031,356.666168 410.754333,354.440186 
	C417.678467,352.331757 423.624390,357.223572 421.899475,364.175415 
	C420.986847,367.853546 422.465393,369.016998 425.225464,370.012543 
	C428.345856,371.138092 431.471405,372.249512 434.928894,373.460175 
M406.760590,366.783844 
	C407.799774,368.067474 408.843903,369.347137 409.877167,370.635559 
	C412.085968,373.389740 413.911438,372.473663 415.056335,369.813232 
	C416.867828,365.603821 414.250916,362.833069 411.269745,360.591400 
	C408.472046,358.487640 405.812866,359.059540 403.447998,362.036255 
	C404.488800,363.552979 405.408356,364.893005 406.760590,366.783844 
z"/>
<path fill="#000000" opacity="1.000000" stroke="none" 
	d="
M288.969055,72.902664 
	C286.729889,76.343079 285.822449,80.195953 282.699310,83.189003 
	C278.877350,77.609070 281.080353,70.380745 276.633392,65.139153 
	C272.679749,70.137390 270.847290,76.193283 266.158539,81.585907 
	C261.926331,70.672783 261.092224,59.543812 257.067078,49.290981 
	C260.466553,47.853310 263.233917,49.160816 266.258759,50.073460 
	C266.480286,56.192139 268.495758,61.913567 270.141907,67.825340 
	C276.504120,64.416405 277.267029,60.303940 273.335419,51.120186 
	C277.187103,50.064251 280.766174,50.920769 284.419464,51.821613 
	C281.951294,58.370167 286.150635,63.685627 286.912018,69.719269 
	C290.061523,65.339447 293.194366,61.154209 294.242889,55.928135 
	C294.808960,53.106758 294.621582,53.069160 298.819092,54.133801 
	C295.561188,60.352840 292.357422,66.468536 288.969055,72.902664 
z"/>
<path fill="#000000" opacity="1.000000" stroke="none" 
	d="
M377.823639,125.031822 
	C378.150787,125.914452 378.341583,126.511726 378.996124,128.560593 
	C373.917297,125.445808 370.651459,122.293419 367.725647,119.430214 
	C377.067047,113.218895 383.483398,105.261368 388.336304,95.221703 
	C392.781403,98.804916 397.856689,102.502739 401.743530,107.460739 
	C403.942383,110.265587 404.151062,113.747398 402.438416,116.910461 
	C400.211487,121.023415 396.290161,121.589912 391.888184,120.888855 
	C389.851410,126.012688 389.720367,131.293427 389.360199,136.539948 
	C383.684509,134.906540 382.296509,132.820099 382.927490,127.457909 
	C383.310516,124.203201 384.754639,120.999855 383.473480,117.103806 
	C380.452026,119.044922 377.568054,120.651543 377.823639,125.031822 
M387.352875,113.714554 
	C389.883789,116.452873 392.687225,116.280136 395.148254,113.911430 
	C397.249298,111.889229 398.401611,109.273582 396.507843,106.379128 
	C395.534088,104.890854 394.114777,103.609932 392.518799,105.316170 
	C390.343689,107.641548 387.313568,109.464935 387.352875,113.714554 
z"/>
<path fill="#000000" opacity="1.000000" stroke="none" 
	d="
M361.301941,404.661896 
	C358.287872,399.984497 357.579346,394.132385 351.430664,391.351379 
	C358.825195,387.167419 365.478424,382.392059 373.186829,380.189819 
	C377.769928,378.880493 377.850006,383.875977 379.165375,386.909607 
	C376.986145,387.802063 376.124023,386.212280 374.975189,385.472656 
	C370.933441,382.870392 367.450317,384.814758 364.487915,387.226318 
	C361.691498,389.502716 364.940826,391.629730 365.552429,393.806183 
	C365.771973,394.587555 366.286804,395.294678 366.715210,396.006592 
	C367.474091,397.267700 368.086365,398.939880 370.011383,398.380859 
	C371.895447,397.833740 371.591156,396.081299 371.633179,394.615417 
	C371.670197,393.324585 371.640930,392.031921 371.640930,389.540070 
	C375.922424,394.290527 377.468781,399.300232 380.595428,404.776276 
	C376.400360,403.623688 374.683350,399.528625 370.726440,401.554535 
	C370.710114,405.607849 373.030640,408.792511 375.316956,411.613983 
	C377.725403,414.586151 385.310638,410.156647 386.547363,405.114716 
	C386.962158,403.423737 386.976959,401.634644 387.204559,399.625824 
	C392.621429,405.341553 392.322815,408.333801 386.266724,411.498383 
	C379.965454,414.791077 373.625732,418.010132 366.560822,421.642944 
	C367.988403,414.560303 363.595062,410.177795 361.301941,404.661896 
z"/>
<path fill="#000000" opacity="1.000000" stroke="none" 
	d="
M102.479553,102.276985 
	C113.664322,96.890671 124.204918,100.846672 127.350685,111.287941 
	C129.709442,119.117050 125.642021,127.542458 117.609467,131.466217 
	C110.019981,135.173553 102.117310,133.237152 97.241776,126.475502 
	C92.406738,119.770020 93.138145,111.155144 99.111710,105.045830 
	C100.036774,104.099739 101.145821,103.333549 102.479553,102.276985 
M118.262184,112.277863 
	C115.762733,109.340233 113.065430,106.600342 109.497253,104.993820 
	C106.747681,103.755852 103.906487,103.731956 101.508667,105.794525 
	C99.434357,107.578842 98.820999,110.079208 99.615013,112.634773 
	C101.801620,119.672531 106.337639,124.799019 112.944084,128.020096 
	C115.625946,129.327682 118.181831,128.707504 120.313873,126.701088 
	C122.430801,124.708923 123.183815,122.365166 122.069420,119.469154 
	C121.169548,117.130585 120.376442,114.772362 118.262184,112.277863 
z"/>
<path fill="#000000" opacity="1.000000" stroke="none" 
	d="
M69.073792,370.106079 
	C73.015160,365.362823 76.632347,360.802368 80.486908,356.452240 
	C82.450356,354.236359 82.823349,351.889740 81.767433,348.714417 
	C85.984795,349.568634 87.896729,352.769379 90.653481,354.633789 
	C93.402359,356.492920 95.917870,358.701691 98.502754,360.797760 
	C104.511116,365.669861 104.405327,366.908295 95.888710,373.256866 
	C99.191841,366.780975 96.988350,363.162140 92.971657,360.076141 
	C90.860466,358.454102 89.158333,358.039459 87.602486,360.488861 
	C86.113075,362.833679 83.543106,364.460846 82.896973,367.379364 
	C85.498940,371.415344 88.438522,368.110229 91.866821,368.451477 
	C88.725861,372.301331 85.584892,376.151184 81.836723,380.745300 
	C80.931099,376.763245 85.003212,372.949982 80.282356,370.767822 
	C78.594078,371.086121 77.790787,372.490143 77.052536,373.699249 
	C75.558868,376.145599 71.341217,377.624634 73.613747,381.519196 
	C75.819801,385.299805 81.461212,387.289520 85.752586,386.191437 
	C86.696861,385.949799 87.612312,385.384766 88.578255,386.101135 
	C84.808037,392.819397 83.023376,393.280121 77.580879,388.859344 
	C71.971504,384.303131 66.391945,379.710236 60.938610,374.497253 
	C65.066872,375.304779 67.281555,373.430054 69.073792,370.106079 
z"/>
<path fill="#000000" opacity="1.000000" stroke="none" 
	d="
M138.186432,410.106384 
	C135.968704,413.980164 134.752594,418.023376 131.154114,421.966431 
	C128.042404,409.988678 125.127129,398.767090 122.211861,387.545532 
	C121.796638,387.498688 121.381416,387.451874 120.966194,387.405060 
	C117.938042,393.384430 114.966721,399.393555 111.855026,405.329132 
	C110.523582,407.868866 113.652420,408.995331 113.498375,411.478485 
	C109.907944,411.159882 107.417931,409.089874 104.102753,406.748413 
	C111.054741,404.947968 111.614532,398.647491 114.591576,394.181702 
	C115.320259,393.088684 115.615631,391.712708 116.307419,390.588135 
	C118.767235,386.589386 122.800194,383.067200 119.032410,377.492493 
	C126.358627,378.189514 128.951538,380.375031 130.515961,386.413269 
	C132.202362,392.922272 133.907578,399.426422 135.950073,407.257233 
	C140.073318,401.042023 144.217499,396.511414 143.376282,389.396362 
	C146.455582,389.364441 148.544510,390.970459 150.910858,393.065033 
	C142.875229,396.077209 142.502975,404.289764 138.186432,410.106384 
z"/>
<path fill="#000000" opacity="1.000000" stroke="none" 
	d="
M189.366974,437.468201 
	C182.166626,441.079895 170.362503,437.858978 165.284454,431.298218 
	C160.746994,425.435913 161.264267,416.456635 166.538513,409.529205 
	C172.737686,401.386932 180.400024,401.185150 197.052017,408.797943 
	C197.097183,411.922913 196.296753,414.827179 194.617554,417.535461 
	C192.371552,416.638397 192.991577,414.595428 192.344345,413.168976 
	C190.497772,409.099396 187.519806,406.149780 183.055771,405.690247 
	C179.079910,405.280914 176.843536,408.382996 174.883560,411.355438 
	C172.061218,415.635681 171.078690,420.537872 170.389481,425.498871 
	C170.052673,427.923401 170.963364,430.083710 172.322006,432.059174 
	C174.181931,434.763489 176.725708,436.331848 179.996948,435.526825 
	C183.172058,434.745483 182.775040,431.753082 182.995224,429.332062 
	C183.140732,427.732208 183.022781,426.108337 183.022781,424.224304 
	C187.228363,424.335327 190.827072,426.180847 195.768997,427.013062 
	C191.021805,429.452087 191.159485,433.714508 189.366974,437.468201 
z"/>
<path fill="#000000" opacity="1.000000" stroke="none" 
	d="
M338.166565,427.146118 
	C338.964722,425.220703 338.486969,423.070160 340.572113,422.137268 
	C343.792389,430.512482 343.543030,431.103302 335.161957,433.543213 
	C329.318512,435.244354 323.592743,437.447937 317.614410,438.303162 
	C314.892822,427.188538 314.140442,415.823395 306.671356,406.215332 
	C313.904480,404.087311 321.373322,401.687225 328.959412,399.745056 
	C332.654236,398.799164 333.927795,401.037598 333.953796,408.150909 
	C330.330170,405.298523 327.253906,401.977234 322.058777,404.020325 
	C318.817596,405.294952 317.650055,406.685333 319.142059,409.837341 
	C320.342468,412.373291 319.377441,417.011200 323.009064,417.048859 
	C326.890961,417.089142 324.645844,412.044861 326.935913,409.317261 
	C329.580658,414.324432 330.491669,419.369995 332.026947,425.211609 
	C328.559906,423.338165 327.270905,419.352264 322.723999,420.848511 
	C323.699463,424.934113 323.076111,430.386230 327.457184,432.258209 
	C331.360413,433.926056 335.367981,431.087372 338.166565,427.146118 
z"/>
<path fill="#000000" opacity="1.000000" stroke="none" 
	d="
M266.659729,414.986694 
	C272.089081,420.171295 277.236664,425.095703 282.384277,430.020111 
	C282.837280,423.326233 284.658630,416.689514 278.854736,411.128845 
	C282.018463,410.768433 284.732788,410.459229 288.204102,410.063782 
	C284.188538,414.599487 285.372955,419.424011 285.870880,424.272583 
	C286.554962,430.933502 286.884888,437.630829 287.366547,444.312561 
	C286.852081,444.569153 286.337616,444.825745 285.823151,445.082367 
	C277.374420,437.060272 268.925690,429.038147 260.476959,421.016052 
	C261.925690,429.506836 257.738312,438.972870 265.387421,446.080170 
	C263.286194,446.991119 260.825348,447.623749 258.365051,446.971375 
	C258.667297,435.454651 259.849487,424.069336 253.524338,413.052124 
	C257.850891,412.927429 262.316467,411.121277 266.659729,414.986694 
z"/>
<path fill="#000000" opacity="1.000000" stroke="none" 
	d="
M442.427124,162.552490 
	C441.293396,163.173019 440.491882,163.949783 439.077026,162.871765 
	C440.163849,159.309631 440.287079,155.594406 437.691925,152.266190 
	C436.523804,150.768097 435.350891,149.857101 433.546387,151.234055 
	C431.374176,152.891617 427.439301,153.876633 427.830383,156.761383 
	C428.316193,160.344635 431.950317,157.669083 435.397156,158.382172 
	C431.562134,161.935959 427.957062,164.325027 423.468231,166.521271 
	C423.416412,163.696548 426.542908,161.350113 423.556213,158.665298 
	C420.541321,159.150955 418.319824,161.464355 415.858704,163.278488 
	C414.216217,164.489166 415.038788,165.900558 415.793518,167.253296 
	C418.260223,171.674530 422.007507,173.988663 427.459778,173.805939 
	C421.435333,179.274841 420.023682,179.031906 415.987244,172.700760 
	C412.783386,167.675552 409.376190,162.779984 405.986023,157.717545 
	C416.814056,154.826645 425.029297,148.887238 432.454529,140.342514 
	C435.083099,142.493973 436.708588,146.541412 439.267487,149.800644 
	C441.009064,152.018921 442.314117,154.577896 444.033600,156.816071 
	C445.982483,159.352890 445.310730,161.029907 442.427124,162.552490 
z"/>
<path fill="#000000" opacity="1.000000" stroke="none" 
	d="
M159.382767,102.432129 
	C157.743576,102.952347 156.709274,103.579582 156.369003,101.228233 
	C155.157623,92.857269 150.380753,85.884140 146.860016,78.430717 
	C146.280243,77.203339 144.807709,76.397659 143.351303,75.022827 
	C149.794281,71.987885 155.982697,68.824524 162.379776,66.162674 
	C165.654190,64.800179 167.485413,67.171188 167.882797,72.624725 
	C161.930969,69.799065 156.254211,69.533752 155.082138,72.654671 
	C153.424255,77.069176 157.062439,80.065582 158.949646,83.348412 
	C163.087158,82.208992 162.119614,78.681763 163.372299,75.812553 
	C166.414719,79.746529 168.227600,83.595734 169.337234,88.557449 
	C166.171844,87.607475 164.412308,84.369476 161.259079,85.734558 
	C160.888062,91.669670 163.402832,95.641006 169.507767,97.571945 
	C165.824310,99.350395 162.773132,100.823578 159.382767,102.432129 
z"/>
<path fill="#000000" opacity="1.000000" stroke="none" 
	d="
M60.168373,153.099091 
	C58.770123,155.519928 57.784256,157.665100 60.223083,159.612320 
	C62.670341,161.566269 64.985207,160.609756 67.013695,158.941711 
	C69.852249,156.607529 72.794350,154.481506 76.091858,152.835892 
	C79.477989,151.146088 82.625214,151.818085 85.452873,153.917847 
	C88.399475,156.105957 89.170403,159.237076 88.571487,162.800247 
	C87.874863,166.944702 85.722908,170.254715 82.586525,172.864853 
	C80.737991,174.403198 79.123901,175.914886 79.179741,178.833221 
	C75.676483,177.913452 73.203674,176.197311 71.026001,173.921692 
	C71.785545,172.036316 73.373886,172.582443 74.493561,172.707397 
	C79.383347,173.253036 82.345078,170.764511 84.453133,166.772095 
	C85.586205,164.626190 86.473007,162.393143 84.270233,160.408020 
	C82.184143,158.528046 79.891197,159.142883 77.821175,160.445496 
	C75.573494,161.859924 73.509850,163.563385 71.296165,165.035904 
	C65.523590,168.875717 60.686531,168.671310 57.538395,164.529282 
	C54.563183,160.614777 55.634491,153.338776 59.961308,149.617081 
	C61.972763,147.886948 64.291794,146.525711 64.957886,143.846527 
	C69.094299,144.744766 69.094299,144.744766 71.838371,148.086288 
	C67.285721,148.233398 62.993271,148.678482 60.168373,153.099091 
z"/>
<path fill="#000000" opacity="1.000000" stroke="none" 
	d="
M198.121964,61.511635 
	C194.696060,57.202244 195.284561,54.983738 200.102478,54.105793 
	C205.995575,53.031929 211.899918,52.011700 217.816635,51.077618 
	C224.085678,50.087914 224.470749,50.517532 224.074799,57.283806 
	C223.782013,57.347805 223.355087,57.559639 223.213593,57.438396 
	C221.059418,55.592331 219.451874,51.961819 215.855392,54.059750 
	C212.752731,55.869637 214.890335,58.857513 215.250000,61.322868 
	C215.896652,65.755394 216.708679,70.163551 217.415939,74.587585 
	C217.895569,77.587624 218.967987,80.199005 222.685532,81.696503 
	C218.162949,83.476746 214.304153,83.960205 210.308746,84.144615 
	C210.479477,74.271286 208.403595,65.070175 205.576385,56.046852 
	C201.284836,55.708549 199.464020,58.040859 198.121964,61.511635 
z"/>
<path fill="#000000" opacity="1.000000" stroke="none" 
	d="
M329.614746,83.603165 
	C334.696960,79.115494 339.505035,74.850792 345.287262,69.722023 
	C345.287262,76.276833 345.060883,81.786369 345.350494,87.268639 
	C345.644135,92.827286 343.039215,98.413620 346.449158,104.371437 
	C341.798737,103.885445 338.771210,102.009834 335.206421,99.913956 
	C337.672302,97.502823 339.513031,94.754219 336.638550,91.934265 
	C334.397003,89.735260 331.473236,87.711601 328.229706,88.694115 
	C325.631195,89.481255 324.665314,92.025749 326.348145,95.127213 
	C323.208099,95.264915 321.351807,94.036156 319.147034,92.487526 
	C322.689178,89.477798 326.014862,86.651978 329.614746,83.603165 
M337.302673,88.230705 
	C340.082886,85.447784 338.016998,82.998215 337.070892,80.072113 
	C335.085693,81.982445 333.035858,83.138390 332.118958,85.419449 
	C333.426453,86.851692 334.836365,87.920631 337.302673,88.230705 
z"/>
<path fill="#000000" opacity="1.000000" stroke="none" 
	d="
M221.457321,414.255188 
	C220.844757,413.072266 219.801941,412.546387 220.047241,410.899261 
	C224.524582,411.667847 229.081238,411.743622 233.993347,411.693695 
	C229.473450,417.292206 227.393539,440.660522 230.902588,445.785522 
	C226.270767,447.017761 222.105392,444.824493 217.725082,445.138184 
	C221.830200,434.999573 221.989105,424.837372 221.457321,414.255188 
z"/>
</svg>