<svg version="1.1" id="Layer_1" xmlns="http://www.w3.org/2000/svg" xmlns:xlink="http://www.w3.org/1999/xlink" x="0px" y="0px"
	 width="100%" viewBox="0 0 496 496" enable-background="new 0 0 496 496" xml:space="preserve">
<path fill="#000000" opacity="1.000000" stroke="none" 
	d="
M412.826691,414.614441 
	C413.857544,412.291016 413.235474,410.603241 411.854187,408.895203 
	C407.567474,403.594330 403.379547,398.213684 399.135773,392.877899 
	C397.498444,390.819275 395.624023,389.086670 391.760193,389.228485 
	C397.217163,384.967712 401.576538,381.143494 406.364746,377.965424 
	C409.860748,375.645020 414.052185,374.403442 418.178741,376.580872 
	C421.905426,378.547302 423.308289,382.133759 421.909790,385.913452 
	C420.548004,389.593903 422.225891,390.726776 425.049713,391.632324 
	C429.121887,392.938263 433.204803,394.210693 437.288818,395.499207 
	C433.874359,401.238647 431.169006,402.248230 425.198486,400.150665 
	C421.928925,399.002014 418.840485,397.287109 414.051056,396.723206 
	C417.094604,401.068542 418.759399,405.318726 425.281677,406.297760 
	C420.573669,409.661133 418.101868,414.060364 412.826691,414.614441 
M415.720947,389.308868 
	C415.042084,384.730896 412.773438,381.624237 407.881226,381.170990 
	C406.353729,381.029449 404.846252,381.555420 404.025299,382.992584 
	C403.153076,384.519501 404.526215,385.426666 405.280823,386.435272 
	C406.473206,388.028931 407.703979,389.598145 408.992828,391.114532 
	C412.058807,394.721710 413.078308,394.542480 415.720947,389.308868 
z"/>
<path fill="#000000" opacity="1.000000" stroke="none" 
	d="
M269.792419,40.395645 
	C270.544342,41.840366 271.511414,42.114281 272.195435,40.994713 
	C274.721527,36.860214 277.403748,32.700108 274.674683,27.557055 
	C274.225494,26.710524 273.962433,25.765207 273.527191,24.643461 
	C277.246246,22.648039 280.418182,25.324673 283.949280,24.828999 
	C282.439209,31.505798 285.668121,36.988262 287.105377,43.046612 
	C290.492004,38.063793 294.341278,33.442390 293.809692,26.798414 
	C295.752808,25.200733 297.405060,26.252583 299.220123,27.200314 
	C293.862854,37.159496 288.636169,46.875889 283.074554,57.214958 
	C278.555237,51.462761 281.421722,44.078072 276.770355,38.923634 
	C272.341980,43.580788 270.901672,50.053596 265.717194,55.285389 
	C262.837982,43.821857 260.170654,33.201832 257.486328,22.514280 
	C261.040680,20.938019 263.736542,22.930220 266.764465,22.999094 
	C265.698975,29.217064 268.673553,34.484360 269.792419,40.395645 
z"/>
<path fill="#000000" opacity="1.000000" stroke="none" 
	d="
M384.017212,94.324554 
	C383.990051,92.809418 384.279510,91.616035 383.143127,90.269783 
	C380.514038,93.399658 375.961121,95.244255 378.488464,101.441422 
	C373.510712,99.076279 370.672211,95.648682 367.336365,92.971512 
	C377.297943,87.688995 382.950562,78.900787 388.801575,69.311798 
	C392.739624,72.799553 397.691711,75.788948 401.288086,80.364906 
	C403.596710,83.302361 404.180420,86.771584 402.675446,90.232063 
	C400.644989,94.900719 396.364624,94.972939 391.937714,94.621819 
	C390.237335,99.858635 389.350189,104.989952 389.553711,110.306862 
	C383.990845,109.058647 382.102264,106.445709 382.914948,101.093369 
	C383.238983,98.959244 383.634613,96.835999 384.017212,94.324554 
M396.614197,86.061546 
	C398.748657,82.165749 397.396698,79.581757 393.565796,77.614250 
	C391.660950,79.789925 389.898254,81.771156 388.173859,83.785202 
	C387.182922,84.942558 386.191101,86.143745 387.288544,87.776985 
	C388.346466,89.351402 389.911377,89.764328 391.666199,89.531357 
	C393.595490,89.275230 394.954468,88.032608 396.614197,86.061546 
z"/>
<path fill="#000000" opacity="1.000000" stroke="none" 
	d="
M358.725342,421.184540 
	C357.026550,417.581329 355.848663,414.041473 351.140411,412.526459 
	C358.700256,408.454376 365.342041,404.731964 372.123627,401.284637 
	C375.548584,399.543640 377.924530,402.229065 378.739380,409.112457 
	C374.749969,406.532379 371.189606,403.877533 366.413483,406.907562 
	C363.460724,408.780792 362.680786,410.355438 364.575470,413.199432 
	C364.667450,413.337524 364.721405,413.505280 364.828430,413.628448 
	C366.579224,415.643127 366.395874,420.122253 369.781677,419.650757 
	C373.159088,419.180420 370.719238,414.920807 372.622101,412.231201 
	C376.220642,416.099396 377.787598,420.770355 380.441467,425.946228 
	C376.315308,425.369720 374.606415,420.498688 370.594147,423.104858 
	C370.900085,426.700348 373.069458,429.480438 374.860748,432.382812 
	C375.917023,434.094299 377.557526,433.980835 379.272186,433.222046 
	C384.349487,430.975159 387.920288,427.685883 386.668915,420.604462 
	C392.591217,426.869324 392.301208,429.491608 386.294983,432.672119 
	C380.149780,435.926270 373.971405,439.117889 367.598999,442.445740 
	C367.300140,433.986725 361.795593,428.304840 358.725342,421.184540 
z"/>
<path fill="#000000" opacity="1.000000" stroke="none" 
	d="
M98.257812,381.750397 
	C104.379013,387.122223 104.343300,387.903748 97.673492,393.241791 
	C96.863388,390.499908 98.712288,387.603882 96.757195,385.192139 
	C94.949142,382.961731 92.927505,381.065338 90.218468,379.548035 
	C87.488518,380.921387 86.229599,383.780090 84.280785,385.936829 
	C83.322746,386.997131 82.117111,388.346252 83.462364,389.886414 
	C84.665169,391.263458 86.203171,390.754211 87.591370,390.106842 
	C88.775146,389.554749 89.892548,388.860321 92.394753,387.482483 
	C89.754875,393.357147 85.968910,396.552551 83.032249,400.577209 
	C82.417625,399.851990 82.043510,399.610687 82.059593,399.399017 
	C82.249023,396.904266 84.214417,393.572662 81.104462,392.304688 
	C78.399361,391.201782 77.190483,394.739014 75.727058,396.548401 
	C74.469131,398.103699 71.772682,399.640015 73.114700,401.958649 
	C74.892921,405.030914 77.917030,406.917084 81.546783,407.629822 
	C84.167671,408.144501 86.610985,406.818817 89.437111,406.658173 
	C84.348740,414.408295 83.095367,414.661163 76.867195,409.544312 
	C71.401634,405.053986 65.930748,400.570129 60.431377,395.551147 
	C68.747337,396.849396 70.193062,389.419250 73.728554,385.316010 
	C77.402275,381.052338 83.667336,377.884857 82.109581,368.999054 
	C88.084816,373.712128 93.034096,377.615967 98.257812,381.750397 
z"/>
<path fill="#000000" opacity="1.000000" stroke="none" 
	d="
M125.561165,80.711838 
	C132.887848,93.095856 122.254921,106.488060 110.486877,106.764999 
	C101.985016,106.965080 95.232147,100.649567 94.201736,91.682961 
	C93.328728,84.086075 99.442345,75.546822 107.064186,73.701782 
	C114.651962,71.865005 120.780556,74.001328 125.561165,80.711838 
M120.772995,89.812729 
	C118.048233,84.907364 114.539276,80.815392 109.335968,78.349701 
	C106.441887,76.978294 103.874718,77.124413 101.556175,79.415741 
	C99.304611,81.640854 98.811295,84.246880 99.903076,87.202797 
	C101.815315,92.380096 105.209015,96.437653 109.615128,99.609619 
	C112.907196,101.979576 116.633865,103.182541 120.225945,100.399475 
	C123.869987,97.576141 122.860474,93.971619 120.772995,89.812729 
z"/>
<path fill="#000000" opacity="1.000000" stroke="none" 
	d="
M162.305054,444.579346 
	C161.637024,427.462585 179.550430,418.872375 191.937607,427.398163 
	C197.879959,431.488129 198.291595,431.384247 194.641632,438.385437 
	C192.251053,437.869659 192.790390,435.547485 192.083725,434.067322 
	C190.323547,430.380463 187.816437,427.669891 183.586304,427.192078 
	C179.316345,426.709747 176.782059,429.386292 174.776886,432.616730 
	C172.095047,436.937317 170.983337,441.795837 170.379028,446.779297 
	C170.174026,448.469849 170.570084,450.106537 171.337082,451.616028 
	C173.136444,455.157288 176.221710,457.825897 179.966675,457.093262 
	C183.469452,456.407990 182.764130,452.351105 182.991074,449.417542 
	C183.091156,448.123779 182.271729,446.801910 183.250961,445.300140 
	C187.084702,445.755615 190.827576,446.836731 195.055374,448.467255 
	C192.147202,450.506195 190.974930,453.199738 190.441269,456.128510 
	C189.842575,459.414276 187.871414,460.315552 184.774597,460.387817 
	C172.707596,460.669312 164.029694,454.773407 162.305054,444.579346 
z"/>
<path fill="#000000" opacity="1.000000" stroke="none" 
	d="
M320.607666,423.475433 
	C322.734467,422.804810 324.480408,422.269135 326.217346,421.705841 
	C332.314331,419.728516 334.700592,422.075684 333.512115,429.431396 
	C330.225586,426.483734 327.373749,423.025818 322.235168,425.206635 
	C319.305878,426.449860 317.569000,427.503113 319.064667,430.951813 
	C319.784180,432.610779 320.024384,434.471741 320.577118,436.210907 
	C321.001251,437.545471 321.770538,438.703247 323.385132,438.551514 
	C325.006195,438.399200 325.425140,437.170105 325.644043,435.730865 
	C325.879089,434.185486 325.069763,432.416321 327.040131,430.579437 
	C329.531250,435.484161 330.641571,440.446838 331.765686,446.132751 
	C328.267181,444.924561 327.387848,439.838287 322.939209,441.996674 
	C322.766449,445.274414 324.221069,448.274658 325.236389,451.358795 
	C326.174744,454.209259 328.404510,453.769684 330.592621,453.335022 
	C336.121735,452.236786 338.948608,448.490906 339.874237,442.344727 
	C344.007050,451.019196 343.457886,452.379364 335.534515,454.725861 
	C329.217468,456.596680 322.869171,458.362152 316.815155,460.094177 
	C315.779297,448.434662 313.642700,437.654175 307.070435,427.655151 
	C310.716492,426.530334 315.469574,425.064026 320.607666,423.475433 
z"/>
<path fill="#000000" opacity="1.000000" stroke="none" 
	d="
M283.669067,431.846741 
	C284.827057,431.910187 285.627380,431.976044 286.438416,432.042755 
	C283.517548,443.398224 288.049713,454.457275 286.877563,467.170624 
	C277.533325,458.411438 269.147064,450.550262 260.760834,442.689087 
	C261.359528,451.115601 258.378784,459.941986 265.015411,467.448639 
	C262.601562,468.920288 260.027374,468.063751 257.878387,468.291534 
	C259.434570,456.876251 258.757874,446.038879 254.964798,435.041229 
	C259.064636,433.134247 263.241150,433.018951 267.162354,436.865173 
	C272.123627,441.731567 277.244110,446.435638 283.219482,452.082520 
	C283.875519,444.607147 283.597656,438.516998 279.796326,432.895416 
	C280.608154,431.369232 282.093201,432.029968 283.669067,431.846741 
z"/>
<path fill="#000000" opacity="1.000000" stroke="none" 
	d="
M130.479111,407.754211 
	C132.248444,414.700226 133.937180,421.245422 135.954666,429.064789 
	C140.208969,422.816925 144.859650,418.237091 143.093933,410.739136 
	C146.437546,410.643494 148.436966,412.767944 151.100418,414.320496 
	C145.912888,414.998077 144.796875,419.171051 142.932449,422.709229 
	C139.462830,429.293671 135.918304,435.838684 131.712387,442.398529 
	C127.448479,431.512390 125.892769,419.953491 121.176231,409.193207 
	C118.557014,417.087982 110.152809,422.689392 112.660767,433.068481 
	C110.073936,431.771301 107.540604,430.500916 104.058578,428.754822 
	C110.662483,426.440247 111.880516,420.818756 114.505211,416.251984 
	C115.331711,414.813995 115.780876,413.135437 116.724167,411.792786 
	C119.406174,407.975098 122.338257,404.298523 119.522926,399.083710 
	C126.394829,399.730469 128.956940,401.823456 130.479111,407.754211 
z"/>
<path fill="#000000" opacity="1.000000" stroke="none" 
	d="
M407.088440,132.956146 
	C406.669891,132.055206 406.443848,131.444946 406.381165,131.275742 
	C417.170441,128.741867 424.827026,121.931145 432.674194,113.903069 
	C437.080811,119.370262 441.520660,125.541954 444.868256,132.226562 
	C446.392578,135.270325 442.325439,135.919189 439.616943,137.140320 
	C439.513214,133.126862 440.721588,129.347412 438.008667,126.247314 
	C436.927399,125.011726 435.985260,123.069839 434.058594,124.444939 
	C431.715790,126.117043 428.269714,126.856857 427.673584,130.221359 
	C427.424774,131.625595 428.969635,132.410309 430.456757,132.431839 
	C431.741730,132.450455 432.844971,131.122238 434.963928,132.245911 
	C432.025146,135.891998 427.909485,137.355804 424.412140,139.820633 
	C424.067657,139.085800 423.772491,138.765182 423.828644,138.527527 
	C424.315674,136.465424 427.157318,133.811188 424.074768,132.500732 
	C421.064575,131.221008 418.959106,134.802948 416.493225,136.281372 
	C414.156677,137.682297 414.890411,139.482025 416.145996,141.368530 
	C418.862000,145.449295 422.460999,147.646973 427.972198,146.555542 
	C423.167206,152.541260 420.115906,152.465195 416.435455,146.930374 
	C413.396759,142.360657 410.333344,137.807373 407.088440,132.956146 
z"/>
<path fill="#000000" opacity="1.000000" stroke="none" 
	d="
M161.631775,40.277172 
	C167.020218,38.630810 167.267746,42.371956 168.488647,46.272556 
	C164.741440,44.826878 161.954086,42.059776 158.056152,44.158993 
	C155.067947,45.768276 153.352463,47.207577 155.470413,50.608631 
	C156.079559,51.586823 156.448166,52.714611 156.929153,53.772850 
	C157.546127,55.130295 158.026520,56.780243 159.971863,56.485443 
	C161.955368,56.184845 162.564926,54.677406 162.635162,52.839184 
	C162.671707,51.882542 162.241623,50.833275 163.085800,50.001480 
	C166.069626,52.651035 168.261093,56.920555 169.165344,62.070782 
	C167.146667,61.816402 166.122559,60.205505 164.719467,59.304764 
	C163.643341,58.613926 162.602264,58.383072 161.478180,59.122227 
	C160.160797,59.988472 160.725952,61.086601 161.035538,62.219788 
	C162.199142,66.479073 164.247147,69.076324 168.521454,71.210045 
	C164.675201,73.924316 160.540466,75.324570 156.559265,76.937218 
	C155.621017,66.029823 149.725739,57.602566 144.350967,48.446312 
	C149.700729,45.909672 155.481247,43.168774 161.631775,40.277172 
z"/>
<path fill="#000000" opacity="1.000000" stroke="none" 
	d="
M56.170357,135.295441 
	C55.085804,131.034790 56.429649,127.573792 58.501778,124.548737 
	C60.436958,121.723564 64.048149,120.421242 65.659355,117.104744 
	C68.526443,117.835648 70.655197,119.084442 73.135056,122.493553 
	C66.769928,121.578247 62.118771,122.694054 59.482307,127.806686 
	C57.854923,130.962524 59.879101,134.685349 63.202538,134.603348 
	C64.995506,134.559113 66.290588,133.454834 67.483635,132.280792 
	C70.268303,129.540436 73.553848,127.685394 77.248810,126.467552 
	C84.233147,124.165573 89.577797,128.675354 88.609283,136.008728 
	C88.077072,140.038528 86.007256,143.155273 83.095879,145.770645 
	C81.135216,147.531952 79.091064,149.167664 78.932854,152.466888 
	C75.808174,150.933777 73.150612,149.757812 71.301987,147.309479 
	C72.465981,145.182190 74.340401,146.066315 75.847099,145.966934 
	C80.130409,145.684326 82.887436,143.300446 84.846809,139.754471 
	C86.011894,137.645950 85.968102,135.618622 84.090118,133.864380 
	C82.350006,132.238937 80.443504,132.378021 78.600395,133.541656 
	C75.371887,135.579971 72.348183,137.980057 68.997147,139.778564 
	C63.299347,142.836594 59.625263,141.516800 56.170357,135.295441 
z"/>
<path fill="#000000" opacity="1.000000" stroke="none" 
	d="
M209.687149,48.754478 
	C208.787216,43.616375 207.963257,38.881966 207.003937,34.175152 
	C206.615601,32.269772 206.444885,29.860178 203.917801,29.594749 
	C201.440338,29.334534 200.046936,31.139271 199.059067,33.203735 
	C198.642029,34.075260 198.226303,34.947403 197.758011,35.928097 
	C194.713943,29.633017 195.117416,28.712831 201.620712,27.483490 
	C206.996246,26.467331 212.387268,25.520443 217.792099,24.675076 
	C224.126907,23.684248 225.084488,24.813576 223.787582,31.435234 
	C222.498276,31.497803 222.248032,30.327311 221.703857,29.588943 
	C220.107300,27.422617 217.908981,26.507812 215.604324,27.720947 
	C213.357651,28.903549 214.478455,31.215679 214.832535,33.116528 
	C215.592331,37.195148 216.585022,41.244308 217.081894,45.353943 
	C217.546661,49.198059 218.297592,52.792839 221.994125,55.847969 
	C217.499786,56.646320 213.796631,57.304127 209.694138,58.032871 
	C209.473251,54.857441 211.322861,51.945618 209.687149,48.754478 
z"/>
<path fill="#000000" opacity="1.000000" stroke="none" 
	d="
M336.940491,74.526756 
	C334.166962,73.335930 334.872437,72.354950 336.421295,70.862511 
	C338.506622,68.853134 338.201996,66.202003 335.911682,64.899467 
	C333.307678,63.418507 330.734070,60.089417 327.063873,62.840332 
	C324.913177,64.452370 324.941711,66.448387 327.226013,68.702461 
	C323.450653,69.203773 321.583649,67.272903 318.714142,65.917862 
	C328.192474,58.869373 336.084900,51.069607 345.227997,43.107338 
	C346.220947,55.322960 343.979980,66.472031 345.569061,78.275299 
	C342.583252,76.980865 339.918457,75.825600 336.940491,74.526756 
M338.526306,57.877186 
	C337.939362,56.655109 338.209656,54.946522 336.526581,54.254093 
	C334.790985,55.486977 332.762451,56.372883 332.521606,59.224804 
	C334.682068,59.758518 336.969543,64.906906 338.526306,57.877186 
z"/>
<path fill="#000000" opacity="1.000000" stroke="none" 
	d="
M228.387665,460.774384 
	C227.724625,463.815948 230.302658,465.155273 231.374130,467.834625 
	C226.516891,467.133453 222.096222,467.800903 218.389954,466.519775 
	C221.256088,455.176361 223.098785,444.308777 220.930298,432.788025 
	C224.547760,432.687897 228.282990,432.512177 231.966614,434.198181 
	C228.979401,442.830658 230.135071,451.788635 228.387665,460.774384 
z"/>
</svg>