<?xml version="1.0" standalone="no"?>
<!DOCTYPE svg PUBLIC "-//W3C//DTD SVG 20010904//EN"
 "http://www.w3.org/TR/2001/REC-SVG-20010904/DTD/svg10.dtd">
<svg version="1.0" xmlns="http://www.w3.org/2000/svg"
 width="1000.000000pt" height="1000.000000pt" viewBox="0 0 1000.000000 1000.000000"
 preserveAspectRatio="xMidYMid meet">

<g transform="translate(0.000000,1000.000000) scale(0.100000,-0.100000)"
fill="#000000" stroke="none">
<path d="M4983 9233 c-95 -3 -103 -5 -103 -23 0 -15 7 -20 25 -20 54 0 61 -22
69 -205 4 -92 5 -169 3 -171 -2 -3 -76 88 -163 202 l-159 206 -35 -6 c-19 -3
-61 -6 -92 -6 -51 0 -58 -2 -58 -20 0 -15 7 -20 29 -20 16 0 34 -7 41 -15 13
-16 38 -461 27 -489 -3 -8 -22 -18 -41 -22 -35 -6 -47 -26 -25 -39 5 -4 57 -4
115 0 89 6 105 10 102 24 -2 10 -15 17 -36 19 -17 2 -36 11 -41 20 -5 9 -12
105 -15 212 -6 161 -5 192 6 179 7 -8 87 -111 177 -227 l164 -212 40 0 40 0
-7 108 c-3 59 -9 180 -12 269 -7 174 -3 193 41 193 12 0 24 3 27 6 7 7 -2 45
-11 42 -3 -1 -52 -4 -108 -5z"/>
<path d="M5863 9100 c-98 -23 -179 -112 -209 -230 -53 -207 51 -352 281 -390
33 -6 83 -8 111 -4 l51 6 18 80 c20 88 34 108 71 108 17 0 24 5 24 20 0 11 -2
20 -4 20 -2 0 -55 13 -117 30 -63 16 -120 30 -126 30 -23 0 -14 -37 12 -48 19
-9 25 -19 25 -44 0 -33 -24 -135 -34 -145 -11 -11 -109 20 -136 43 -16 14 -36
45 -46 71 -15 40 -16 55 -7 122 20 137 68 232 134 266 57 30 154 11 179 -34 5
-11 10 -38 10 -60 0 -41 0 -41 38 -41 75 0 106 57 62 113 -52 66 -231 113
-337 87z"/>
<path d="M3740 9047 c-74 -22 -136 -41 -138 -42 -1 -1 1 -10 4 -19 5 -14 14
-16 39 -12 21 4 36 2 44 -7 12 -15 141 -436 141 -462 0 -9 -14 -22 -30 -28
-23 -9 -30 -17 -28 -32 4 -24 -4 -26 151 20 107 32 127 41 127 58 0 17 -5 19
-35 14 -29 -5 -38 -2 -49 16 -20 31 -138 432 -134 454 2 10 16 24 31 31 26 12
36 36 20 45 -5 3 -69 -13 -143 -36z"/>
<path d="M2855 8662 c-33 -16 -110 -59 -172 -96 -81 -48 -111 -70 -107 -81 7
-18 15 -19 49 -3 22 10 29 9 45 -8 29 -30 240 -394 240 -415 0 -10 -10 -24
-22 -30 -13 -6 -24 -13 -26 -14 -5 -5 11 -35 19 -35 4 0 62 32 129 71 107 63
119 73 109 90 -9 18 -12 18 -40 3 -39 -19 -47 -13 -100 77 -53 92 -54 94 -24
107 22 10 35 6 125 -49 108 -65 149 -77 201 -60 97 32 126 81 47 81 -30 0 -66
15 -149 61 l-109 61 20 38 c36 71 21 153 -39 203 -45 38 -114 37 -196 -1z m73
-68 c27 -19 72 -104 72 -137 0 -30 -28 -66 -68 -89 l-29 -17 -62 104 c-33 57
-61 107 -61 109 0 11 76 45 100 46 14 0 36 -7 48 -16z"/>
<path d="M7450 8298 c-56 -29 -90 -84 -90 -148 0 -33 12 -71 45 -140 54 -115
57 -150 15 -192 -27 -26 -36 -30 -68 -25 -53 9 -102 64 -102 114 0 21 9 53 21
72 11 18 19 34 17 36 -38 32 -83 31 -113 -1 -94 -102 114 -316 274 -283 42 9
79 36 109 80 35 49 26 119 -27 228 -49 101 -53 150 -16 186 51 52 135 17 135
-55 0 -22 -5 -51 -12 -66 -11 -23 -10 -28 7 -40 27 -20 79 -17 98 4 36 40 16
101 -55 168 -83 80 -163 101 -238 62z"/>
<path d="M1998 8021 c-90 -86 -101 -100 -89 -114 12 -15 15 -15 38 3 14 11 31
20 37 20 20 0 346 -336 346 -356 0 -10 -9 -27 -20 -39 -18 -20 -19 -23 -5 -35
12 -10 24 -4 72 38 32 28 80 73 107 101 41 42 47 52 37 65 -11 13 -16 13 -42
-6 -27 -20 -32 -21 -52 -8 -46 31 -327 326 -327 345 0 10 7 26 16 36 16 18 13
49 -5 49 -5 0 -56 -44 -113 -99z"/>
<path d="M8154 7541 c-96 -25 -225 -126 -263 -206 -48 -102 -18 -229 77 -324
119 -119 291 -101 439 45 50 50 65 71 78 119 20 69 15 128 -17 195 -29 58 -92
126 -141 152 -44 22 -126 31 -173 19z m221 -134 c86 -86 45 -185 -121 -297
-92 -61 -170 -87 -216 -71 -75 26 -111 100 -83 168 20 48 73 104 148 155 82
56 135 78 191 78 41 0 53 -5 81 -33z"/>
<path d="M1505 7381 c-22 -10 -52 -31 -67 -47 -41 -45 -190 -283 -183 -294 10
-16 26 -12 50 14 15 16 30 23 41 19 11 -3 105 -60 209 -127 195 -125 215 -145
184 -182 -10 -12 -9 -18 4 -31 9 -9 18 -15 20 -12 44 57 158 253 153 264 -8
23 -22 18 -46 -15 -12 -16 -29 -30 -38 -30 -19 0 -154 80 -150 89 2 3 15 29
30 58 68 128 38 242 -77 294 -51 23 -80 23 -130 0z m49 -115 c19 -8 52 -31 75
-51 33 -30 41 -44 41 -72 0 -42 -26 -96 -42 -86 -78 48 -215 136 -221 142 -5
5 7 25 26 45 38 40 66 45 121 22z"/>
<path d="M8853 6604 c-8 -4 -9 -14 -3 -34 5 -18 4 -34 -3 -44 -14 -19 -445
-169 -464 -162 -7 3 -18 17 -25 31 -11 25 -48 35 -48 13 0 -11 89 -277 96
-286 1 -2 11 -1 22 2 17 6 18 11 8 46 -8 32 -7 43 5 55 13 13 190 79 194 72 1
-1 16 -44 35 -94 18 -51 35 -93 39 -93 3 0 13 5 21 10 15 9 7 39 -47 186 -3 9
188 84 215 84 12 0 55 -132 51 -160 -3 -16 -17 -32 -40 -45 -34 -19 -36 -22
-25 -46 l11 -26 68 25 c37 13 67 30 67 36 0 23 -147 430 -156 432 -5 1 -14 0
-21 -2z"/>
<path d="M1003 6421 c-68 -42 -116 -211 -83 -291 19 -47 73 -88 124 -95 73
-11 111 8 201 101 44 45 90 87 103 94 55 27 122 -22 122 -89 0 -77 -60 -126
-147 -119 -34 3 -38 1 -41 -23 -2 -14 6 -37 18 -52 32 -40 95 -38 137 3 75 73
107 233 64 317 -40 79 -141 114 -218 74 -23 -11 -67 -50 -99 -86 -75 -85 -113
-109 -159 -101 -53 10 -80 66 -59 121 9 24 58 45 104 45 40 0 40 0 40 38 0 70
-49 98 -107 63z"/>
<path d="M9038 5573 c-32 -4 -38 -8 -38 -27 0 -20 6 -24 50 -30 56 -7 64 -17
75 -88 l7 -47 -33 -5 c-19 -3 -130 -12 -247 -21 -234 -17 -242 -16 -242 37 0
24 -4 29 -20 26 -25 -4 -24 7 -16 -141 8 -144 11 -157 37 -157 15 0 19 7 19
34 0 18 6 38 13 44 11 9 381 42 465 42 l33 0 -3 -62 -3 -63 -47 -15 c-42 -13
-48 -19 -48 -42 0 -24 3 -26 33 -23 17 3 53 7 80 10 56 7 52 -20 32 260 -22
295 -17 275 -68 273 -23 -1 -59 -3 -79 -5z"/>
<path d="M1310 5461 c0 -11 -11 -28 -24 -38 -13 -10 -143 -54 -290 -98 l-267
-80 3 -59 3 -60 253 -107 c139 -59 262 -115 273 -125 10 -9 19 -25 19 -36 0
-27 36 -23 44 5 3 12 6 61 6 110 0 80 -2 87 -20 87 -14 0 -20 -7 -20 -22 -1
-54 -37 -60 -124 -24 l-38 16 7 102 c4 57 12 106 17 109 5 3 34 12 63 19 62
15 85 5 85 -36 0 -17 6 -24 19 -24 16 0 19 11 24 83 4 45 7 108 7 140 0 50 -2
57 -20 57 -13 0 -20 -7 -20 -19z m-223 -322 c-4 -45 -8 -83 -10 -85 -2 -2 -53
16 -113 40 -60 23 -118 46 -129 50 -14 5 15 17 105 41 69 18 131 33 139 34 11
1 13 -14 8 -80z"/>
<path d="M9140 4455 c0 -33 -42 -42 -260 -54 -118 -7 -243 -15 -277 -18 l-62
-6 -12 -49 c-8 -36 -8 -52 -1 -57 6 -3 86 -49 176 -101 91 -52 165 -98 166
-101 0 -4 -53 -12 -117 -19 -65 -7 -158 -18 -207 -24 l-90 -11 -11 -46 -12
-46 231 -123 c127 -68 241 -132 254 -143 13 -12 22 -32 22 -49 0 -21 5 -28 19
-28 16 0 23 17 44 103 17 73 21 104 13 109 -19 13 -27 9 -37 -22 -8 -22 -17
-30 -34 -30 -13 0 -100 38 -195 84 l-171 85 43 5 c24 3 131 15 238 26 107 12
198 25 202 28 3 4 8 18 10 31 3 21 -17 35 -192 137 -107 62 -202 118 -210 123
-10 7 21 10 96 10 61 1 151 4 200 7 101 8 128 -5 122 -55 -2 -20 1 -26 16 -26
17 0 24 18 47 115 35 142 35 160 9 160 -11 0 -20 -7 -20 -15z"/>
<path d="M8156 3268 c-47 -78 -53 -94 -40 -101 11 -7 24 -1 44 18 l28 27 51
-47 c28 -26 51 -52 51 -56 0 -5 -24 -47 -52 -95 l-53 -85 -45 6 c-25 4 -56 12
-70 19 -24 11 -26 19 -18 71 2 14 -3 20 -14 20 -12 0 -42 -39 -87 -112 -60
-97 -67 -114 -54 -122 12 -6 25 -3 44 11 l27 20 274 -57 c150 -32 278 -59 283
-61 11 -4 65 75 65 95 0 6 -79 111 -176 234 -167 211 -175 224 -171 259 4 33
-4 48 -28 48 -1 0 -28 -41 -59 -92z m258 -310 c47 -57 83 -104 81 -106 -4 -4
-247 57 -253 63 -4 4 78 145 84 145 2 0 42 -46 88 -102z"/>
<path d="M1885 2590 c-143 -55 -270 -100 -281 -100 -12 0 -27 7 -34 15 -16 19
-29 19 -36 1 -3 -9 22 -47 62 -96 60 -72 69 -79 83 -66 13 14 13 17 -2 34 -20
22 -22 46 -4 60 6 5 89 40 182 77 94 37 176 69 184 73 8 3 -4 -21 -26 -54 -22
-32 -72 -112 -112 -176 -44 -72 -79 -118 -89 -118 -8 0 -25 9 -37 20 -19 18
-24 19 -34 6 -11 -13 2 -33 76 -120 71 -85 90 -103 101 -92 10 9 10 19 2 40
-7 20 -6 34 5 55 10 21 174 295 281 473 5 7 -44 68 -54 68 -4 -1 -124 -45
-267 -100z"/>
<path d="M7500 2401 c-92 -87 -103 -101 -91 -115 13 -15 16 -15 36 4 12 11 28
20 37 20 16 0 148 -135 148 -151 0 -4 -9 -14 -21 -23 -19 -13 -31 -11 -130 25
-61 21 -125 39 -142 39 -34 0 -108 -41 -140 -77 -25 -29 -2 -47 39 -33 24 9
49 5 130 -19 157 -47 155 -46 144 -76 -39 -101 34 -215 137 -215 72 0 113 28
311 212 52 48 61 62 52 73 -10 12 -15 12 -37 -2 -18 -12 -31 -14 -47 -7 -31
12 -325 335 -326 357 0 9 9 26 21 38 16 16 18 23 8 35 -6 8 -14 14 -18 14 -3
-1 -53 -45 -111 -99z m256 -370 l77 -84 -36 -34 c-53 -48 -94 -46 -147 7 -41
41 -60 76 -60 108 0 23 59 94 75 90 7 -2 48 -41 91 -87z"/>
<path d="M2647 2087 l-46 -62 22 -17 c20 -16 23 -15 54 13 19 16 43 29 54 29
16 0 118 -63 162 -100 8 -7 -120 -200 -133 -200 -3 0 -42 24 -85 54 -77 53
-80 54 -93 35 -8 -11 -12 -21 -11 -23 2 -1 36 -24 74 -51 39 -26 74 -52 79
-56 13 -11 -105 -181 -121 -175 -7 3 -40 24 -73 46 -65 44 -73 65 -45 119 11
23 12 31 2 38 -34 27 -30 30 -101 -79 l-17 -26 195 -135 c178 -124 197 -134
206 -117 8 15 6 22 -8 32 -29 21 -34 36 -21 60 20 37 239 351 260 373 19 19
20 20 51 2 25 -14 33 -15 39 -5 5 7 9 16 9 19 0 3 -57 46 -127 94 -71 49 -162
112 -204 141 l-76 53 -46 -62z"/>
<path d="M6613 1764 l-222 -115 30 -67 c36 -80 33 -76 56 -64 14 9 18 23 18
69 l0 58 84 43 c45 24 86 40 91 35 4 -4 30 -52 59 -105 l52 -97 -88 -47 c-48
-26 -89 -48 -91 -50 -2 -1 1 -12 7 -23 11 -20 13 -20 95 24 45 25 87 45 92 45
5 0 31 -43 57 -95 l47 -95 -70 -35 c-38 -19 -78 -35 -89 -35 -11 0 -32 16 -47
35 -23 30 -29 33 -48 23 -11 -6 -23 -12 -24 -14 -2 -1 13 -32 33 -68 l36 -65
210 104 c115 58 209 108 209 113 -1 24 -18 33 -43 21 -14 -6 -32 -9 -40 -6
-19 7 -227 408 -227 436 0 13 10 26 25 33 14 6 25 16 25 22 -1 38 -23 30 -237
-80z"/>
<path d="M3575 1546 c-87 -40 -153 -138 -175 -258 -11 -59 -2 -126 25 -178 16
-32 73 -83 115 -105 35 -18 312 -115 329 -115 21 0 11 37 -14 48 -14 7 -28 18
-31 25 -6 16 141 446 159 464 9 9 22 10 44 4 27 -8 32 -6 36 11 6 22 18 16
-173 82 -163 55 -234 60 -315 22z m236 -47 c19 -7 36 -13 38 -15 2 -2 -33
-111 -79 -243 l-82 -239 -38 13 c-56 20 -79 36 -102 74 -61 97 19 338 132 398
48 26 81 28 131 12z"/>
</g>
</svg>
