<?xml version="1.0" standalone="no"?>
<!DOCTYPE svg PUBLIC "-//W3C//DTD SVG 20010904//EN"
 "http://www.w3.org/TR/2001/REC-SVG-20010904/DTD/svg10.dtd">
<svg version="1.0" xmlns="http://www.w3.org/2000/svg"
 width="1000.000000pt" height="1000.000000pt" viewBox="0 0 1000.000000 1000.000000"
 preserveAspectRatio="xMidYMid meet">

<g transform="translate(0.000000,1000.000000) scale(0.100000,-0.100000)"
fill="#000000" stroke="none">
<path d="M5486 7419 c-39 -31 -36 -76 10 -120 83 -80 91 -139 19 -139 -39 0
-75 37 -76 79 0 23 -1 24 -8 6 -5 -11 -12 -35 -15 -52 -6 -27 -5 -32 7 -27 8
3 29 -2 46 -10 44 -23 88 -20 116 9 14 13 25 35 25 48 0 26 -40 86 -84 126
-28 26 -33 50 -14 69 32 32 98 -6 98 -57 0 -35 17 -14 25 32 6 31 5 36 -8 31
-8 -3 -29 2 -46 10 -40 21 -63 20 -95 -5z"/>
<path d="M4400 7421 c0 -5 -27 -11 -59 -13 -74 -5 -122 -38 -146 -102 -40
-103 28 -196 142 -196 37 0 135 39 147 58 3 5 0 35 -6 66 -11 48 -10 59 2 66
20 13 8 12 -46 -1 -36 -9 -42 -14 -29 -23 8 -6 21 -33 29 -59 l14 -48 -31 -20
c-39 -23 -68 -24 -113 -3 -63 30 -93 128 -60 192 29 57 112 74 166 34 35 -26
35 -26 15 22 -15 34 -25 46 -25 27z"/>
<path d="M5939 7237 c-124 -82 -69 -272 79 -269 106 1 173 118 126 218 -34 72
-136 97 -205 51z m156 -22 c32 -31 33 -79 4 -140 -28 -59 -62 -85 -110 -85
-72 0 -99 71 -59 158 40 89 114 119 165 67z"/>
<path d="M3826 7213 c-24 -13 -27 -17 -13 -24 17 -10 100 -149 93 -156 -3 -3
-61 14 -130 37 l-126 42 -35 -22 c-19 -12 -35 -23 -35 -24 0 -1 15 0 33 2 33
4 35 2 92 -98 50 -88 57 -105 46 -122 -11 -17 -8 -17 28 4 36 21 38 24 19 28
-21 5 -124 162 -110 167 4 2 68 -17 142 -41 74 -25 136 -43 138 -41 2 2 -26
56 -63 120 -55 95 -65 118 -55 130 15 18 13 18 -24 -2z"/>
<path d="M6477 6985 c4 -18 -11 -43 -63 -107 -80 -97 -83 -99 -109 -91 -12 4
-7 -5 15 -22 19 -16 44 -36 54 -44 18 -15 18 -15 6 6 -12 19 -10 26 24 67 20
25 40 46 42 46 3 0 21 -12 40 -27 29 -22 34 -31 29 -52 -6 -24 -4 -24 24 9 32
37 42 61 16 40 -13 -10 -22 -8 -55 15 -22 15 -40 31 -40 35 0 4 15 24 33 45
29 33 36 36 54 27 39 -21 84 -82 78 -105 -6 -20 -5 -20 14 3 l21 25 -35 31
c-19 17 -61 51 -93 77 -53 41 -59 44 -55 22z"/>
<path d="M3305 6846 c-42 -37 -46 -43 -25 -39 22 4 37 -9 103 -83 68 -74 78
-90 72 -113 -6 -24 -2 -22 39 19 25 24 46 45 46 46 0 1 -10 -1 -23 -3 -18 -4
-38 12 -100 80 -78 86 -87 103 -65 125 29 29 -2 8 -47 -32z"/>
<path d="M6839 6621 l-24 -19 28 5 c28 6 51 -7 68 -38 8 -16 -3 -28 -68 -80
-115 -91 -120 -94 -140 -78 -17 14 0 -13 46 -70 l19 -25 -5 25 c-4 21 7 34 82
92 47 38 92 70 99 73 21 8 49 -32 44 -65 -4 -26 -2 -29 13 -20 10 5 21 13 24
19 6 10 -141 200 -155 200 -4 0 -18 -9 -31 -19z"/>
<path d="M2972 6471 c-15 -15 -42 -49 -59 -74 -28 -38 -30 -44 -13 -40 28 7
210 -124 210 -152 1 -18 4 -17 26 10 14 17 30 38 35 48 9 16 8 17 -9 6 -16
-10 -26 -7 -66 21 -63 45 -50 60 55 60 72 0 80 2 104 27 27 30 34 53 9 33 -8
-8 -50 -15 -93 -18 l-77 -4 4 36 c9 75 -73 105 -126 47z m78 -31 c23 -23 25
-39 8 -75 -14 -32 -21 -31 -69 3 -42 30 -47 46 -22 74 21 24 58 23 83 -2z"/>
<path d="M7186 6172 c-4 -12 -52 -63 -107 -113 -54 -50 -99 -95 -99 -99 0 -5
17 -6 38 -4 20 2 64 5 96 8 l59 5 -68 -69 c-38 -38 -67 -72 -64 -75 3 -2 58 0
123 6 65 6 133 9 152 7 37 -4 41 3 20 41 -12 22 -13 22 -18 4 -4 -16 -17 -21
-68 -26 -35 -4 -77 -7 -94 -7 l-30 0 64 65 c44 44 71 64 83 61 9 -2 17 -3 17
-1 0 8 -42 95 -46 95 -3 0 -3 -4 1 -10 3 -5 -7 -24 -23 -41 -26 -29 -36 -33
-93 -37 l-64 -4 65 66 c45 46 71 65 83 62 14 -3 17 0 11 17 -3 12 -12 33 -19
46 -12 24 -13 25 -19 3z"/>
<path d="M2706 6024 c-26 -57 -34 -84 -15 -51 14 24 27 22 131 -25 112 -50
118 -54 118 -82 0 -13 10 -1 25 32 30 64 30 65 7 51 -14 -9 -39 -1 -127 38
-93 41 -110 53 -109 71 0 12 -1 22 -2 22 -1 0 -14 -25 -28 -56z"/>
<path d="M2597 5659 c-26 -20 -49 -78 -63 -157 -6 -33 -5 -35 8 -19 13 18 17
18 98 -3 166 -42 160 -39 161 -63 0 -12 7 1 15 28 17 64 17 70 -1 55 -11 -10
-25 -10 -66 0 -48 12 -50 14 -43 39 16 52 9 93 -20 118 -33 28 -56 29 -89 2z
m86 -61 c17 -20 16 -51 -2 -71 -4 -4 -31 -3 -59 4 -44 9 -52 14 -52 33 0 61
71 83 113 34z"/>
<path d="M7155 5465 c8 -44 15 -58 15 -32 0 18 11 20 58 11 27 -5 31 -11 37
-48 4 -22 9 -48 11 -57 3 -11 -8 -25 -32 -40 -36 -22 -37 -22 -51 -3 -15 19
-15 19 -10 -1 3 -11 9 -40 13 -65 6 -38 8 -42 15 -23 7 19 60 57 223 161 48
30 49 29 -119 72 -71 18 -138 40 -148 49 -18 15 -18 14 -12 -24z m189 -51 c20
-3 38 -10 41 -14 3 -4 -17 -22 -43 -39 l-47 -31 -6 28 c-12 50 -10 75 5 69 8
-3 31 -9 50 -13z"/>
<path d="M2648 5140 c-14 -11 -40 -42 -58 -70 -37 -58 -72 -68 -92 -25 -15 34
1 67 43 88 l34 17 -45 0 -45 0 -3 -65 c-3 -54 0 -67 18 -85 22 -22 67 -26 91
-7 8 7 29 33 46 58 42 61 58 72 88 65 52 -13 41 -96 -16 -120 l-31 -13 32 -7
c51 -10 57 -8 57 22 1 15 2 46 3 70 4 78 -64 118 -122 72z"/>
<path d="M7211 4934 c-1 -17 -4 -47 -8 -65 l-6 -34 19 23 c17 21 24 23 72 16
36 -5 52 -11 50 -20 -2 -7 -34 -35 -73 -61 -65 -45 -70 -51 -73 -88 -2 -37 -1
-38 10 -18 11 19 118 103 131 103 3 0 10 -14 17 -30 23 -55 96 -55 121 0 21
45 35 191 15 165 -11 -16 -24 -17 -128 -10 -119 7 -131 10 -141 35 -3 8 -6 1
-6 -16z m213 -70 c42 -6 46 -9 46 -35 0 -33 -23 -59 -54 -59 -34 0 -56 21 -63
63 -6 41 -7 41 71 31z"/>
<path d="M2771 4719 c-1 -8 -60 -55 -131 -104 -72 -48 -128 -90 -126 -92 2 -2
67 -19 145 -37 78 -19 148 -39 156 -46 13 -10 15 -9 14 11 0 13 -4 33 -8 43
-7 19 -8 19 -13 -1 -5 -19 -10 -20 -43 -13 -20 5 -38 10 -39 12 -2 1 -8 27
-13 56 -10 50 -9 54 15 72 29 23 43 25 60 8 10 -10 11 -5 6 22 -11 52 -22 87
-23 69z m-72 -192 c1 -28 0 -29 -41 -22 -72 12 -74 19 -21 53 53 34 61 30 62
-31z"/>
<path d="M7106 4329 c-16 -51 -30 -97 -32 -104 -3 -6 10 -19 27 -29 l31 -18
-18 27 c-15 24 -16 33 -5 73 18 70 24 73 84 52 55 -19 59 -27 38 -83 -7 -18
-18 -27 -32 -27 -31 0 -15 -12 32 -27 39 -11 40 -11 24 7 -14 16 -15 24 -4 59
13 45 21 47 81 29 35 -10 39 -14 33 -37 -15 -59 -34 -91 -55 -91 -12 0 -18 -4
-15 -10 3 -5 17 -10 30 -10 21 0 27 10 54 99 35 111 37 123 18 97 -12 -17 -19
-16 -130 19 -64 20 -120 43 -125 51 -6 11 -17 -12 -36 -77z"/>
<path d="M3137 3713 c2 -21 -3 -60 -10 -88 -14 -51 -16 -52 -67 -40 -18 5 -34
0 -54 -16 -24 -19 -27 -27 -23 -56 3 -18 27 -63 53 -98 48 -65 61 -78 50 -50
-6 18 6 30 106 106 54 41 86 59 99 56 27 -7 24 2 -15 47 -29 35 -33 37 -32 17
1 -16 -12 -32 -41 -53 -22 -17 -45 -28 -51 -24 -5 3 -1 42 11 96 l21 91 -25
25 -25 24 3 -37z m-8 -197 l21 -22 -46 -34 c-57 -41 -79 -33 -79 26 0 63 58
79 104 30z"/>
<path d="M6755 3647 c-90 -113 -106 -173 -62 -238 43 -65 131 -85 194 -44 32
21 151 170 124 156 -25 -14 -16 -20 -134 78 -67 54 -78 67 -73 87 4 13 5 24 4
24 -2 0 -25 -28 -53 -63z m118 -105 c42 -35 77 -70 77 -77 0 -7 -16 -27 -35
-44 -28 -24 -45 -31 -78 -31 -117 0 -175 121 -100 210 21 26 28 29 42 18 9 -7
51 -41 94 -76z"/>
<path d="M3472 3320 c-38 -24 -42 -33 -7 -20 30 11 57 2 103 -37 l33 -28 -36
-48 c-20 -26 -39 -47 -43 -47 -4 1 -22 14 -41 30 -24 21 -32 34 -28 49 7 28 4
27 -26 -12 -25 -33 -25 -34 -4 -30 14 2 35 -8 56 -25 l34 -29 -33 -42 c-18
-22 -36 -41 -39 -41 -3 0 -25 17 -48 38 -32 30 -41 44 -36 60 7 29 -1 28 -20
-2 -17 -25 -26 -16 142 -150 24 -19 24 -19 12 2 -10 18 -2 32 66 117 67 84 80
95 101 90 26 -6 30 -11 -99 97 l-56 47 -31 -19z"/>
<path d="M6350 3239 c-104 -80 -104 -80 -86 -120 l14 -34 1 37 c1 30 8 43 43
72 23 20 45 36 48 36 4 0 24 -21 44 -47 l37 -48 -33 -27 c-36 -30 -57 -34 -78
-15 -7 6 0 -7 16 -30 27 -39 29 -40 32 -18 3 20 69 84 76 74 1 -2 17 -23 34
-46 l32 -41 -42 -32 c-34 -24 -49 -30 -73 -25 l-30 5 22 -21 21 -22 87 64 c73
54 83 64 63 67 -31 4 -162 175 -155 203 7 27 0 24 -73 -32z"/>
<path d="M3978 3009 c17 -18 15 -44 -8 -89 l-20 -40 -33 20 c-65 40 -140 14
-140 -49 0 -40 28 -70 103 -110 64 -34 78 -38 61 -17 -18 21 90 233 120 238
16 2 7 10 -37 31 -33 16 -53 23 -46 16z m-53 -132 c17 -13 17 -16 -11 -65 -16
-29 -33 -52 -37 -52 -15 0 -57 49 -57 67 0 52 62 81 105 50z"/>
<path d="M5904 2828 c6 -101 5 -148 -3 -160 -14 -23 -5 -22 39 2 28 16 31 19
14 20 -20 0 -22 7 -29 96 -4 52 -5 97 -3 99 2 2 37 -27 77 -65 64 -59 72 -71
61 -84 -9 -12 0 -11 40 6 47 19 50 23 30 30 -12 4 -67 51 -123 103 -56 52
-104 95 -107 95 -3 0 -1 -64 4 -142z"/>
<path d="M4375 2843 c-119 -32 -146 -210 -42 -273 97 -60 221 14 221 132 0 92
-92 165 -179 141z m100 -35 c46 -40 43 -140 -6 -202 -31 -39 -63 -49 -103 -32
-60 25 -70 113 -23 198 32 60 87 74 132 36z"/>
<path d="M5436 2816 c-103 -23 -114 -30 -115 -81 -1 -16 3 -13 19 12 13 23 31
35 60 43 64 17 73 12 87 -50 6 -30 10 -56 8 -58 -2 -3 -25 -7 -50 -10 -37 -4
-48 -1 -59 14 -12 16 -12 11 -3 -36 9 -45 12 -50 17 -30 5 20 15 27 48 34 52
11 58 5 67 -56 l7 -46 -56 -7 c-39 -5 -61 -4 -71 5 -12 10 -15 10 -15 -1 1
-34 15 -35 118 -15 79 16 99 23 86 31 -11 7 -25 49 -41 124 -22 107 -22 115
-7 132 20 22 25 23 -100 -5z"/>
<path d="M4830 2744 c-16 -41 -12 -49 11 -20 18 23 28 26 80 26 l59 0 0 -119
c0 -113 -1 -121 -22 -135 -21 -15 -19 -16 42 -15 36 0 58 3 50 6 -8 3 -18 11
-22 17 -10 14 -10 103 -1 185 5 51 10 64 27 71 13 6 -22 9 -97 9 -117 1 -118
1 -127 -25z"/>
</g>
</svg>
